# xmcd CD database file
#
# Track frame offsets:
#	150
#	22307
#	39900
#	57335
#	81700
#	102680
#	122885
#	144320
#	167847
#	190345
#
# Disc length: 2819 seconds
#
# Revision: 0
# Processed by: cddbd v1.5PL3 Copyright (c) Steve Scherf et al.
# Submitted via: CDex 1.51
#
DISCID=950b010a
DTITLE=Les Stars du Zouk - Total Remix
DYEAR=1990
DGENRE=Merengue
TTITLE0=Eric Brouta/A Zero
TTITLE1=Luc Leandry/An Ba Koko La
TTITLE2=Tatiana Miath/On Ti Douse
TTITLE3=Chiktay/Dezole
TTITLE4=David and Corine/Tanpo La
TTITLE5=Mario Chicot/Sans Toi
TTITLE6=Annick and Jean-Claude/Pou La Vi
TTITLE7=Gianni Miele/Pou'w
TTITLE8=J And J/Jessika
TTITLE9=J-C Bihary/Pa Oublie Nou
EXTD=YEAR: 1990
EXTT0=
EXTT1=
EXTT2=
EXTT3=
EXTT4=
EXTT5=
EXTT6=
EXTT7=
EXTT8=
EXTT9=
PLAYORDER=
